/* XPM */
static const char *bitcoin16_xpm[] = {
/* columns rows colors chars-per-pixel */
"16 16 142 2",
"s. c #8CC9C8",
".. c #76BFC7",
"R  c #39A5B9",
"l  c #52B6B9",
"8. c #80C7CF",
".  c #9BD2CF",
"i  c #72C8C6",
"Y  c #278091",
"n  c #65B6C7",
"0. c #7EC7C6",
"=. c #80C4D1",
"h. c #55BDBE",
"g. c #66C3C4",
"_  c #34929E",
"   c #FFFFFF",
"G  c #74BCC6",
"T  c #147D95",
"Q  c #83D1EB",
"|  c #2BA0BC",
"l. c #70C5C9",
"N  c #8DD3E7",
"U  c #58BEBF",
"K  c #77C9E5",
"@  c #63AAB1",
")  c #62C6C5",
";. c #75C6CB",
"b  c #2499B1",
"-  c #9CD3D0",
"S  c #288191",
"B  c #7CC4D7",
"%. c #49B2D1",
"y. c #5FB6C3",
"A  c #5BC2C2",
"^  c #5AB2C4",
"j  c #4A8A9B",
"6  c #9AD6D6",
"h  c #77B4BE",
"4  c #60C3C3",
",. c #3DA1AA",
"5. c #7AC1CD",
"u  c #8ED1D1",
"<. c #2D7C8F",
"+  c #5E97A5",
"a  c #176F84",
"m  c #5DB6C6",
"e  c #1F8097",
"*  c #87CDCB",
":. c #87CDCC",
"o. c #6FC9C7",
"D  c #137B94",
">. c #63C4C4",
"v  c #106B84",
" . c #40A5B6",
"s  c #137890",
"$. c #45AFCD",
"p. c #9ACAD9",
"%  c #6DC9C7",
"c  c #3694A0",
"/  c #79C8C3",
"[  c #7BCEED",
":  c #8CC8CC",
"k  c #1F7185",
"&  c #7ECCCA",
"z. c #80C6CF",
"C  c #6DC3C3",
">  c #649CAB",
"Z  c #5AC0C0",
"g  c #57B6C5",
"z  c #70C7C6",
"W  c #7ECCEB",
"V  c #6CA4AF",
"7. c #9BCBDA",
"2  c #2D8D9B",
"!  c #77CBE9",
"t. c #6BBDC8",
"}  c #6BC6E7",
"'  c #299CB2",
"i. c #99CBD9",
"X. c #62C2C1",
";  c #90D0CE",
"8  c #67C6C6",
"u. c #81C4D0",
"M  c #75C2D2",
"X  c #95D1CF",
"O. c #4CB2B7",
"k. c #7DCDCD",
"a. c #7FC7CE",
"@. c #158099",
"o  c #8BC6CA",
"f. c #7DCAC8",
"&. c #2CA0BC",
"L  c #73CBEC",
"j. c #65C3C3",
"<  c #237085",
"w  c #137D96",
"3  c #4AAFB5",
"x  c #63C6C5",
"t  c #3BA0A9",
"3. c #2A9DB3",
"5  c #80CBCA",
"{  c #76CCEA",
"x. c #93CBD7",
"F  c #39A6B9",
"d. c #85C9C7",
"d  c #2399B1",
"I  c #72C9C4",
"y  c #61C3C4",
"9  c #54ABB2",
"2. c #2D9EB4",
"1. c #4FAABC",
"~  c #59BBDD",
"6. c #9DCDDB",
"7  c #8FCECE",
"=  c #99D6D5",
"9. c #8FCBCA",
"w. c #5ABCBE",
"f  c #30A2B9",
"*. c #309FB4",
"E  c #68B8CB",
"q  c #0F6E85",
"4. c #3AA4B6",
"#. c #299EB7",
"]  c #77C1D4",
"e. c #6EC6C8",
"#  c #67C5C5",
"J  c #86CDE2",
"q. c #5BC0C1",
",  c #397F91",
"-. c #8BC8D5",
"P  c #84CDDE",
"1  c #21788B",
"r  c #12697F",
"(  c #5EC4C0",
"+. c #176D82",
"r. c #71C4C7",
"H  c #73C1D3",
"$  c #5EC4C4",
"p  c #4FB5BA",
"O  c #6DA1AF",
"c. c #95CAD7",
"`  c #106F88",
"0  c #1C6B82",
/* pixels */
"                                ",
"  . X o O + @ # $ % & * =       ",
"  - ; : > , < 1 2 3 4 5 6       ",
"  7 8 9 0 q w e < r t y u       ",
"  i p a s d f g h j k l z       ",
"  x c v b n m M N B V C Z       ",
"  A S D F G H J K L P I U       ",
"  A Y T R E W Q ! ~ ^ / (       ",
"  ) _ ` ' ] [ { } |  ...X.      ",
"  o.O.+.@.#.$.%.&.*.=.-.;.      ",
"  :.>.,.<.1.2.3.4.5.6.7.8.      ",
"  9.0.q.w.e.r.t.y.u.i.p.a.      ",
"  s.d.f.g.h.j.k.l.z.x.c.a.      ",
"                                ",
"                                ",
"                                "
};
