/* XPM */
static const char *bitcoin32_xpm[] = {
/* columns rows colors chars-per-pixel */
"32 32 451 2",
"0X c #89CDE2",
"<. c #0D637B",
"jX c #86CFE8",
",o c #7DCCEA",
"@X c #86D2EB",
")  c #136B81",
"'. c #166C82",
"vX c #77CAED",
"aX c #166F86",
",O c #1C778A",
"eo c #227C8E",
"#. c #257D8F",
">. c #2E7A8E",
"s  c #4C909E",
"%  c #5596A3",
"So c #1C95AD",
"OO c #1C95AE",
"#O c #1F96AF",
"ZX c #2297AF",
"$O c #2B9DB2",
"x. c #229AB2",
"oO c #259BB3",
"A. c #5BB0B4",
"yO c #55BABC",
"k  c #55BABD",
"Uo c #55BDBF",
"8o c #61C4C0",
"EX c #5EC3C0",
"NX c #58BEBF",
"-  c #5BBFC0",
"wo c #58BEC0",
"r  c #61C1C1",
"(. c #5BBFC1",
"YO c #5EC0C2",
"go c #31A2BD",
"l  c #5BC2C3",
"zO c #6AC4C3",
"3O c #49AABF",
"lO c #7CC7C5",
"nO c #61BBC5",
"/. c #7FC8C6",
" . c #73C7C9",
"kO c #8BC9C8",
"=  c #79CFCC",
"PO c #82CCCB",
"vo c #7CD0CD",
"]o c #8BCCCB",
"tX c #7FCBD1",
"U  c #97D6D5",
"/O c #8ECAD4",
"0O c #8ECAD6",
"=O c #97CAD8",
"qO c #97CAD9",
" O c #0C617A",
"io c #70C9E7",
"S  c #0F657C",
"%. c #12667D",
"eX c #85D3EA",
"HX c #82CFEC",
">o c #7CCDEC",
"C. c #156A81",
"^X c #156D84",
"_  c #157087",
"a. c #1B7589",
"h  c #3C9BA5",
"*o c #1E8BA3",
"u. c #5491A1",
"k. c #45A7AE",
"-. c #1E97B0",
"}. c #279AB1",
"Mo c #219BB3",
";. c #4BA3B4",
"AO c #54BBBE",
"+o c #5DC4C0",
"#o c #57BFC0",
"@  c #72A7B5",
"+. c #5ABDC0",
"tO c #66C1C1",
"f. c #63C0C1",
"dX c #51AEBD",
"!  c #75B7BC",
"@o c #63C3C3",
"SX c #45A7BD",
"xO c #66C4C5",
"MO c #60B6C2",
"D. c #78CAC7",
"t  c #78CAC8",
"Po c #81CDCA",
"WO c #7BCECD",
"rO c #8DCBCA",
"*X c #84D1CD",
"jO c #72BFCA",
"eO c #8DCBCB",
"1  c #87CFCE",
"I. c #6FBBCA",
"y  c #8AD0CF",
"5X c #81C1CB",
"|. c #78BBCA",
"3  c #90D2D1",
"Go c #81C4D0",
"UX c #5DB8D0",
"m. c #84CBD3",
"_X c #72BFD8",
"+X c #8ACDE3",
"xX c #69C5E5",
"so c #66C4E5",
"ao c #69C5E6",
"po c #66C4E6",
"rX c #87CFE6",
"F  c #0E637B",
"G  c #11677E",
"'X c #81CDEA",
"bX c #7ECCEF",
"8. c #2C8897",
"d  c #3B8495",
"ho c #1A94AD",
"#  c #659BAA",
"^. c #689FAC",
"XO c #44A2B7",
"W  c #53BCBE",
"N. c #68A5B4",
"iX c #59BEBF",
"w  c #56BDBF",
"Ao c #2FA1BB",
"j. c #59BEC0",
"&X c #74B2B9",
"v. c #41A7BB",
"QX c #5CBFC1",
":X c #59C1C2",
"3X c #4DABBC",
"(X c #53ADBD",
"). c #68C6C4",
"UO c #6BC7C5",
"0o c #6BC7C6",
"DX c #50ACC1",
"*  c #77CBC7",
"Q  c #6EC8C7",
"mO c #5CB6C4",
"sO c #68BDC6",
"(o c #5FB4C5",
"lo c #74BEC6",
"Fo c #62B8C7",
"E  c #7DCACA",
"pO c #74C7CB",
"g. c #8CCCCA",
".X c #65B9C9",
"1O c #83C0CB",
"4X c #86C4CC",
"X  c #98D0CE",
"Ko c #7AC3CE",
"I  c #92D4D2",
"dO c #77C2D1",
"^O c #8FCAD4",
"JO c #8FCAD7",
"*O c #98CAD9",
"KO c #98CADA",
"Q. c #7DCDE2",
"lX c #83CFE5",
"kX c #86D0E6",
"{X c #89D1E7",
"GX c #77C8E7",
"]  c #0D647C",
",X c #10657D",
"JX c #7ACCEB",
".O c #1C6F85",
"9. c #197A91",
"1X c #1F91A9",
"No c #1F97AE",
"a  c #6499A8",
"sX c #1F97B0",
"}  c #4CAFB4",
"e. c #2298B1",
"`. c #4FB3B7",
"co c #5EC4BF",
"d. c #55BEC0",
"S. c #58BFC1",
"cO c #6AC8C4",
":  c #64C3C3",
"+  c #7CB9BE",
"xo c #6ABFC2",
"TX c #88CFC4",
"'o c #6AC5C5",
"~o c #37A5C0",
"uo c #5BB1C2",
"bO c #82C4C6",
"6X c #6DBAC5",
"oo c #8BC4C5",
"VO c #85CECB",
"T. c #58B6C8",
"RO c #7CCECE",
"GO c #70C4CC",
"U. c #6ABCCA",
":O c #8ED1CF",
";O c #8BD0CF",
".  c #9AD2CF",
"7X c #67BBCD",
"b  c #91D2D1",
"M. c #88C9CF",
"Ho c #7CC2CF",
"Zo c #55B8D8",
"fo c #64C3E4",
"}X c #67C4E5",
"PX c #64C3E5",
"ro c #0F637A",
"LX c #6AC5E6",
"[X c #88D2E7",
"J. c #0F637B",
"p. c #0C627B",
"|X c #67C4E7",
"2o c #67C4E8",
"]X c #7CCEEA",
"&o c #12677E",
"^  c #0F667E",
"i. c #186C82",
"1. c #186F84",
"K. c #156E85",
"|o c #1B7388",
"Z. c #247086",
"{  c #1E778A",
"Yo c #247F90",
"to c #18788F",
"g  c #2A8193",
"[. c #1B829A",
"&. c #1B859D",
"J  c #3694A0",
"no c #3FA0A9",
"+O c #1B94AC",
"L. c #2196AD",
"y. c #669EAB",
"c. c #279BB2",
".o c #2A9CB3",
"s. c #51B8BB",
"4O c #39A4B9",
"^o c #2DA0B9",
"L  c #54BCBE",
"e  c #57BDBF",
"7. c #5AC1C1",
"B  c #75A9B6",
"|  c #5AC1C2",
"bo c #5AC1C3",
"Oo c #6FC5C3",
"6. c #69C3C3",
"8O c #60B7C2",
" o c #3CA8C1",
"Xo c #60B4C1",
"5o c #5AB2C1",
">  c #72CCC8",
"TO c #6FC8C9",
"ko c #72BDC5",
"<  c #81CECB",
"QO c #78CBCC",
"YX c #78BFC8",
"o. c #8DCCCC",
"Y  c #96D5D4",
"8X c #87CADE",
"zX c #81CEE5",
"]. c #11657C",
"Ro c #146C83",
"C  c #267589",
"H. c #268192",
"f  c #327C91",
"mo c #1D8AA1",
":. c #4D8E9D",
"VX c #3B9AA5",
"Eo c #1D8DA5",
"!X c #41A2AA",
"4o c #1A95AD",
"yo c #1D96AE",
"$  c #6298A7",
"/o c #2097AF",
"w. c #2097B0",
"=o c #1D99B1",
"0. c #209AB2",
"{. c #209AB3",
"8  c #68A6B2",
"-o c #38A2B6",
"P. c #35A1B6",
"9o c #5FC4C0",
"BX c #59BFBF",
"Lo c #62C5C1",
"RX c #6BCBC2",
";X c #5CC0C0",
"z  c #56BEC0",
"P  c #65C0C0",
"!o c #32A3BD",
"_. c #65C3C2",
"0  c #5CC3C4",
"gX c #62B6C0",
"!. c #7DADBA",
"B. c #7AACBA",
"uO c #6EC3C4",
"-O c #6BC5C5",
"2  c #77C6C4",
"vO c #80C9C5",
"%O c #59B3C2",
"c  c #71C7C6",
"XX c #50B0C2",
"CO c #74C8C7",
"n. c #4DAFC3",
"FX c #50ADC4",
"LO c #83CDCA",
"7o c #71BEC7",
"aO c #71C4CA",
"iO c #7ACDCC",
"EO c #7ACDCD",
"HO c #71BECA",
"DO c #7DCBCE",
"u  c #8CCDCD",
"4. c #8FD1CF",
"Jo c #7DC2CF",
".. c #95D3D5",
"O  c #9BD5D5",
"(O c #8FCBD4",
"R. c #8FD1D8",
"&O c #92CCD7",
"`o c #92CCD9",
")o c #98CEDA",
"E. c #92D2E2",
"wX c #65C3E5",
"cX c #62C2E5",
"IX c #6EC6E6",
"#X c #77CFE8",
"[  c #0D627B",
"A  c #10667E",
"<X c #136A81",
"`  c #167188",
"~  c #347E92",
"<O c #528B9C",
"6  c #5899A5",
"*. c #1F92AA",
">X c #43A4AC",
"@O c #1993AC",
"j  c #46A8AF",
"2X c #1C97B0",
"Qo c #259AB3",
"jo c #2E9DB3",
"}o c #4FB4B8",
"t. c #64A9B3",
"qo c #55BCBE",
"x  c #58BDBF",
"G. c #55BCBF",
"{o c #58C0C1",
"fX c #67B9C3",
"9  c #70C5C6",
"yX c #7FCDC8",
"Y. c #55B3C5",
"5. c #88CDC9",
"!O c #79C8CC",
"6o c #76BEC9",
"9O c #76C1CB",
";o c #85C0CC",
"n  c #9AD3D0",
"~O c #88CAD2",
" X c #82C2D0",
"5  c #97D5D4",
"OX c #85C9DB",
"Vo c #5EBFE0",
"9X c #8ECCE0",
":o c #82CBE4",
"qX c #6DC7E6",
"Co c #67C5E7",
"D  c #0F647B",
"$. c #0C637B",
"do c #67C5E8",
"~X c #0F647C",
",. c #12687F",
"'  c #156C83",
"`X c #7FCDF0",
"H  c #1B7488",
"z. c #187990",
"Wo c #1B95AD",
"Do c #1E96AF",
"=. c #2197AF",
"p  c #699DAC",
"@. c #54BABD",
"WX c #60C4C0",
";  c #5DC0C1",
"5O c #42A8BD",
"Io c #63C2C2",
"7O c #4EAFBF",
"mX c #75CBC4",
"=X c #66C3C3",
"uX c #6CC5C4",
"BO c #7BC7C4",
"v  c #78C6C4",
">O c #72C7C7",
"SO c #6CC5C8",
"gO c #60B8C5",
"h. c #7BCDC9",
")X c #75B9C3",
"Bo c #45ACC5",
"m  c #7BC7C8",
"NO c #8AC9C8",
"2O c #5DB7C8",
"3. c #81CCCB",
"O. c #87CBCB",
"oX c #5AB6C9",
"o  c #8ACCCC",
"M  c #96D3D3",
"hX c #75C2D2",
"X. c #93D2D4",
"i  c #9CD5D5",
"wO c #96CAD8",
"_o c #93CCD9",
"3o c #5ABCDC",
"$X c #7ECEDE",
"<o c #7ECEE7",
"1o c #6FC6E6",
"To c #0E627B",
"W. c #84D0E8",
"(  c #11667D",
"/  c #0E657D",
"l. c #11667E",
"KX c #7BCDEB",
"Z  c #146A80",
"%o c #146A81",
"CX c #177188",
"   c #FFFFFF",
"~. c #598D9C",
"V  c #4D8C9E",
"pX c #3B9BA5",
"7  c #5090A0",
"&  c #569EA8",
"/X c #2095AC",
"AX c #2098B0",
"q. c #1D97B0",
"$o c #4DB0B5",
"V. c #689EAC",
"%X c #6EA3B0",
"-X c #53BBBE",
"6O c #3BA7BB",
"2. c #56BCBF",
"ZO c #5CBEC0",
"q  c #59C0C1",
"K  c #59C0C2",
"MX c #6BC6C3",
"b. c #47ABBF",
"r. c #59B4C1",
"hO c #62B7C2",
"F. c #6EC7C6",
"N  c #80BBC0",
"IO c #7ACBC8",
"fO c #53B5C6",
"[o c #80CAC8",
",  c #80CDCA",
"zo c #74BDC6",
"FO c #7DCCCF",
"R  c #95D1D0",
"T  c #92D0D0",
"nX c #77C7D2",
"4  c #98D5D5",
/* pixels */
"                                                                ",
"                                                                ",
"                                                                ",
"                                                                ",
"      . . X o O + @ # $ % & * = - ; : > , < 1 2 3 4 5           ",
"      . . X o O + @ # $ 6 7 8 9 0 q w e r t y 2 3 4 5           ",
"      . . X u i + @ p a s d f g h j k l z x c v b 4 5           ",
"      n n . m M N B V C Z A S D F G H J k K L P I U Y           ",
"      T R E W Q ! ~ ^ / ( ) _ ` ' G ] [ { } | L  ...X.          ",
"      o.O.+.z @.#.$.%._ &.*.=.-.;.:.>.,.<.1.} K 2.3.4.          ",
"      5.6.L 7.8.<.%.9.=.0.q.w.e.r.t.y.u.i.p.a.s.d.f.g.          ",
"      h.j.| k.l.%.z.x.q.c.v.b.n.m.M.N.B.V.C.Z.A.S.e D.          ",
"      F.G.q H.J.K.L.q.P.I.U.Y.T.R.E.W.Q.!.~.^./.(.W ).          ",
"      _.z `.'.].[.{.}.|. X.XXXoXOX+X@X#X$X%X&X*X=X-X;           ",
"      ;X:X>X,X<X1X2X3X4X5X6X7X8X9X0XqXwXeXrXtXyXuXL iX          ",
"      j.l pXJ.aX=.sXdXfXgXhXjXkXlXzXxXcXvXbXnXmXMXNXBX          ",
"      x l VXJ.CXZXAXSXDXFXGXHXJXJXKXLXPXIXUXYXTXRXEXWX          ",
"      QX| !X~X^X/Xq.(X)X_X`X'X]X[X{X}X|X o.oXoooOo+oWX          ",
"      @o#o$o%o&o*o=o-o;o:o>o,o]X<o1o2o3oAX4o5o6o7o8o9o          ",
"      0oqowoeorotox.youoE.iopoaosodofogohojokolozoxoco          ",
"      voe bono~X&omoMoNoBoVopoCowXZoAoSoDoFoGoHoJoKoLo          ",
"      PoIoUowoYoToRoEo2XWoQo!o~o^o/oWoyo(o)o_o_o_o`o'o          ",
"      ]o[oe {o}o|o O.OXOoOOO+O@OWo#O$O%O&O*O=O=O=O=O-O          ",
"      ;O:O>OL | `.,O<O1O2O3O4O5O6O7O8O9O0OqOwOwOwOwO-O          ",
"      eOeOrOtOL q yOuOiOpOaOsOdOfOgOhOjO0OqOwOwOwOwO-O          ",
"      kOkOkOlOzO2.z z - xOcOvObOnOmOMOjO0OqOwOwOwOwO-O          ",
"      kOkONOBOVOCOZOqoqoqoAOSODOFOGO8OHOJOKOqOqOqOwO-O          ",
"      kOkONOBOLOPOIOUOYOe qoTOROEOWOQO!O~O^O/O/O(OwO-O          ",
"                                                                ",
"                                                                ",
"                                                                ",
"                                                                "
};
